<?xml version="1.0" encoding="utf-8"?>
<!-- Generator: Adobe Illustrator 26.0.1, SVG Export Plug-In . SVG Version: 6.00 Build 0)  -->
<svg version="1.1" id="Layer_1" xmlns="http://www.w3.org/2000/svg" xmlns:xlink="http://www.w3.org/1999/xlink" x="0px" y="0px"
	 viewBox="0 0 290 262.1" style="enable-background:new 0 0 290 262.1;" xml:space="preserve">
<style type="text/css">
	.st0{fill:#F7EFE1;}
</style>
<g id="Layer_2_00000141444005705641603190000014205655720134123946_">
	<g id="Layer_1-2">
		<path class="st0" d="M108.8,113.6h-6v15h6c5.1,0,7.8-2.6,7.8-7.4C116.6,116.2,113.8,113.6,108.8,113.6z"/>
		<path class="st0" d="M247.7,201.7h-0.3c-1.2,7.6-2.8,15.2-4.8,22.7h9.9C250.5,216.9,248.9,209.3,247.7,201.7z"/>
		<path class="st0" d="M221.5,174.7V87.4h-68.4V0H0v87.4h68.4v87.4h68.4v87.4H290v-87.4H221.5z M62,27.4H48v42.1h-5.2V27.4h-1v42.1
			h-5.2V27.4H22.7v-4.3H62V27.4z M62,22.1H22.7v-4.3H62V22.1z M98.3,7.6h24.9v3H98.3V7.6z M98.3,11.6h24.9v3H98.3V11.6z M94,17.9
			h33.5v3.9H94V17.9z M94,60.8h10.9V26.6H94v-3.9h33.5v3.9h-11.1v34.2h11.1v3.9h-16.2V26.6h-1v38.1H94V60.8z M94,65.7h33.5v3.9H94
			V65.7z M185.9,105.2l14.4,51.7h-5.1L182,105.2H185.9z M180.9,105.2l9.1,35.6h-16.7l-0.2,1h17.3l3.8,15h-5.1l-2.8-11.2h-14.2
			l-2.8,11.2h-5.1l13.2-51.7L180.9,105.2z M172.5,105.2h3.9l-13.2,51.7h-5.1L172.5,105.2z M96.6,156.9h-5.2v-51.7h5.2L96.6,156.9z
			 M124.5,156.9l-9.5-21.4l-1,0.2l9.4,21.2h-5.7l-8.8-20.7h-6.1v20.7h-5.2v-24.3h13.2c8.2,0,12-5.9,12-11.4
			c0-7.5-4.8-12.2-12.4-12.2h-7.6v1h7.6c7.1,0,11.4,4.2,11.4,11.2c0,5.2-3.4,10.4-11,10.4H97.6v-26.3h12.6
			c11.6,0,18.3,5.8,18.3,15.9c0.2,5.7-3.3,10.9-8.7,13l10.3,22.8L124.5,156.9z M165.5,244.2h-4.4v-51.6h4.4V244.2z M175.2,231.4
			l-4.4-20.6v33.5h-4.4v-51.6h3.4l8.8,38.8H175.2z M191.8,244.2h-4.4v-33.5l-4.4,20.6h-3.4l-8.8-38.8h3.1c0,0,5.1,21.5,5.2,23.8
			c0.1-2.3,5.2-23.8,5.2-23.8h3l-6.6,29.6l0.6,2.1l7.1-31.8h3.5L191.8,244.2z M197.2,244.2h-4.4v-51.6h4.4V244.2z M226.4,244.2
			l14.4-51.6h3.9l-13.2,51.6H226.4z M257.4,244.2l-2.8-11.2h-14.1l-2.8,11.2h-5.1l13.2-51.6h3.5l9.1,35.6h-16.8l-0.2,1h17.3l3.8,15
			L257.4,244.2z M263.6,244.2l-13.2-51.6h3.9l14.4,51.6H263.6z"/>
		<path class="st0" d="M179.3,114.3H179c-1.2,7.6-2.8,15.2-4.8,22.7h9.9C182.1,129.5,180.5,122,179.3,114.3z"/>
	</g>
</g>
</svg>
